<?xml version="1.0" encoding="UTF-8"?>
<!DOCTYPE svg PUBLIC "-//W3C//DTD SVG 1.1//EN" "http://www.w3.org/Graphics/SVG/1.1/DTD/svg11.dtd">
<!-- Creator: CorelDRAW -->
<svg xmlns="http://www.w3.org/2000/svg" xml:space="preserve" width="1.66666in" height="1.66666in" version="1.1" style="shape-rendering:geometricPrecision; text-rendering:geometricPrecision; image-rendering:optimizeQuality; fill-rule:evenodd; clip-rule:evenodd"
viewBox="0 0 1666.66 1666.66"
 xmlns:xlink="http://www.w3.org/1999/xlink"
 xmlns:xodm="http://www.corel.com/coreldraw/odm/2003">
 <defs>
  <style type="text/css">
   <![CDATA[
    .fil1 {fill:none}
    .fil0 {fill:black}
   ]]>
  </style>
 </defs>
 <g id="Layer_x0020_1">
  <metadata id="CorelCorpID_0Corel-Layer"/>
  <g id="_2565525638048">
   <path class="fil0" d="M778.53 749.6c11.78,-1.28 14.79,-0.07 19.14,-10.3l31 -72.13c1.44,-3.36 2.47,-7.3 4.49,-10.11 6.41,13.3 12.05,27.39 18.23,40.61 6.31,13.49 12.04,27.61 17.84,41.07 4.41,10.22 6.08,9.59 18.41,10.93 9,0.97 18.31,1.7 26.97,2.61 17.97,1.89 35.96,3.24 53.93,5.13 -0.22,1.64 -0.16,0.98 -1.46,2.21 -0.56,0.53 -1.56,1.37 -2.19,1.91l-12.19 10.81c-5.65,4.98 -10.78,9.87 -16.44,14.78 -11.22,9.72 -21.46,19.26 -32.67,29.19 -8.28,7.34 -5.58,11.2 -2.9,22.94l16.7 75.72 -41.48 -23.81c-6.49,-3.74 -37.48,-22.97 -42.71,-22.73 -4.83,0.22 -37.44,20.35 -42.35,23.14 -11.41,6.5 -31.42,18.9 -41.3,23.99 1.17,-8.21 13.66,-64.69 16.38,-77.18 2.59,-11.91 4.8,-15.28 -3.4,-22.43l-65.1 -58.76 81.09 -7.6zm1.61 -19.12c-9.61,1.15 -20.95,1.95 -30.64,2.5 -15.89,0.91 -43.86,4.21 -60.41,6.2 -12.19,1.47 -22.7,-0.2 -22.67,12.04 0.02,6.56 4.85,8.07 7.92,11.52l52.92 47.25c3.69,3.22 6.71,6.11 10.54,9.48 3.64,3.19 6.96,6.08 10.57,9.54 -0.24,4.89 -18.28,83.7 -20.2,92.42 -0.83,3.8 -3.26,12.06 -2.45,15.6 1.13,4.93 5.19,7.98 11.71,6.62 4.41,-0.92 9.02,-4.1 12.59,-6.26l83.66 -48.03c3.34,0.26 88.93,52.26 95.83,54.26 6.19,1.79 10.56,-1.78 11.73,-6.54 1.14,-4.61 -8.14,-40.24 -9.54,-46.36 -2.38,-10.41 -4.45,-20.29 -6.92,-30.81l-6.78 -30.91c0.27,-1.02 16.7,-15.24 19.06,-17.5 10.41,-9.99 27.97,-23.95 38.65,-34.43l19.52 -17.56c2.99,-2.56 6.81,-6.01 4.9,-12.67 -1.52,-5.29 -5.41,-6.3 -11.32,-6.91 -33.83,-3.49 -67.41,-6.67 -101.71,-9.09 -1.73,-2.05 -4.87,-10.15 -6.17,-13.28l-36.28 -81.55c-2.33,-4.69 -4.01,-9.06 -10.89,-9.36 -10.28,-0.45 -12.65,9.84 -17.66,21.46 -3.94,9.15 -7.85,18.44 -11.93,27.54l-17.8 41.13c-1.25,2.81 -4.67,11.67 -6.25,13.67z"/>
   <path class="fil0" d="M815.15 992.47c4.79,-2.08 11.39,0 13.39,-3.67 1.81,-3.33 2.8,-8.11 4.86,-11.67 2.19,3.53 3.29,7.58 5.28,11.37 1.48,2.81 2.57,2.48 6,2.75 2.51,0.19 5.33,0.34 7.36,0.94 -1.15,1.76 -2.92,2.86 -4.61,4.28 -0.82,0.68 -4.48,3.6 -4.77,4.08 -1.28,2.11 2.04,10.84 2.54,14.13 -3.19,-1.03 -10.11,-5.84 -12.02,-5.86 -2.54,-0.03 -8.09,5.02 -11.65,5.67 0.38,-3.67 3.82,-10.99 2.19,-13.94l-8.56 -8.09zm1.62 -16.72c-5.73,0.06 -12.81,0.83 -18.6,1.46 -5.99,0.65 -14.14,0.37 -12.01,8.34 0.93,3.47 9.07,9.7 12.26,12.61 1.19,1.08 1.44,1.65 2.6,2.63 2.02,1.72 3.69,3.11 5.69,5 -0.83,12.09 -11.02,29.43 -1.52,33.29 8.15,3.31 24.45,-13.84 28.42,-13.39 0.58,0.07 11.65,7.17 13.28,8.22 3.64,2.32 9.75,7.3 14.86,5.16 6.04,-2.53 3.81,-9.3 2.38,-15.31 -1.23,-5.22 -2.67,-13.35 -4.17,-17.81 1.37,-1.8 3.46,-3.19 5.27,-4.68 2.26,-1.87 3.46,-3.03 5.66,-4.87 2.65,-2.22 9.31,-6.95 9.95,-10.74 1.4,-8.28 -5.69,-7.68 -12.04,-8.34 -6.42,-0.67 -12.75,-1.48 -19.11,-1.59 -1.74,-5.01 -4.31,-11.27 -6.37,-16.04 -2.28,-5.26 -3.37,-12.89 -10.12,-12.73 -7.64,0.17 -10.79,17.31 -16.44,28.8z"/>
   <path class="fil0" d="M690.96 991.66c4.28,0.04 11.95,-0.09 13.89,-2.85 1.43,-2.02 3.15,-8.17 4.47,-10.24 0.5,-0.79 0.32,-0.5 0.81,-1.02 1.44,3.19 3.64,10.39 5.72,12.39 3.07,1.85 8.85,0.91 12.58,2.06 0.02,0.98 -0.54,1.4 -1.55,2.29 -11.68,10.35 -7.29,3.31 -4.47,20.83 -1.88,-1 -11.42,-6.35 -12.84,-6.17 -2.7,0.34 -9.14,6.04 -12.89,6.1 7.79,-18.74 0.89,-14.47 -5.72,-23.4zm4.31 -15.94c-5.47,0.14 -13.6,0.69 -19.25,1.4 -6.67,0.84 -13.47,-0.15 -13.32,7.47 0.08,4.2 4.88,7.06 9.5,11.3 3.81,3.5 7.35,6.19 11.2,9.89 -0.41,10.5 -10.33,28.69 -1.77,33.08 6.67,3.43 17.94,-8.43 28.39,-13.19 3.28,1.23 13,8.06 16.75,10.46 2.22,1.42 6,4.33 9.65,3.78 12.02,-1.8 2.03,-21.36 -0.15,-34.98 2.64,-1.29 8.4,-6.64 11.14,-8.95 2.92,-2.46 9.23,-6.63 9.26,-11.44 0.04,-7.59 -6.78,-6.57 -13.3,-7.39 -5.94,-0.74 -13.5,-1.45 -19.32,-1.43 -5.09,-11.87 -7,-26.98 -14.04,-27.34 -6.37,-0.33 -7.35,6.51 -9.23,11.59 -1.85,5 -4.23,10.91 -5.51,15.73z"/>
   <path class="fil0" d="M938.99 992.03c4,-0.46 11.54,-0.06 13.5,-3.04 1.98,-3 2.63,-8.34 4.8,-11.26 7.08,11.23 -0.03,12.87 18.34,14.1 -0.24,1.86 -7.25,7.55 -8.69,8.46 -0.35,4.48 1.7,11.03 2.86,14.57 -3.52,-0.61 -10.14,-5.68 -12.43,-5.9 -1.77,-0.17 -9.37,4.98 -11.54,6.04 -0.61,-4.36 3.27,-10.68 2,-14.24 -0.85,-2.39 -6.98,-5.17 -8.85,-8.72zm3.41 -16.24c-5.66,-0.05 -13.73,0.78 -19.5,1.37 -6.4,0.65 -13.85,-0.07 -12.88,7.8 0.47,3.82 5.53,7.62 9.57,10.99 3.39,2.83 8.21,7.64 11.51,9.67 -0.93,7.87 -10.49,28.92 -1.98,33.28 7.59,3.89 23.47,-13.27 27.8,-13.11 4.03,0.15 21.3,16.41 28.29,13.59 8.75,-3.52 -0.24,-21.08 -1.94,-33.6 5.42,-5.43 20.41,-15.59 20.67,-20.69 0.4,-7.91 -8.3,-7.3 -12.83,-7.67 -6.24,-0.51 -13.25,-1.46 -19.44,-1.71 -0.76,-4.15 -3.9,-10.92 -5.3,-15.32 -1.61,-5.06 -3.18,-12.04 -9.44,-11.99 -5.94,0.04 -7.02,7.02 -8.83,12 -1.88,5.17 -3.85,10.42 -5.7,15.39z"/>
  </g>
  <rect class="fil1" x="625" y="625" width="416.67" height="416.67"/>
 </g>
</svg>
