<?xml version="1.0" encoding="UTF-8"?>
<!DOCTYPE svg PUBLIC "-//W3C//DTD SVG 1.1//EN" "http://www.w3.org/Graphics/SVG/1.1/DTD/svg11.dtd">
<!-- Creator: CorelDRAW -->
<svg xmlns="http://www.w3.org/2000/svg" xml:space="preserve" width="1.66666in" height="1.66666in" version="1.1" style="shape-rendering:geometricPrecision; text-rendering:geometricPrecision; image-rendering:optimizeQuality; fill-rule:evenodd; clip-rule:evenodd"
viewBox="0 0 1666.66 1666.66"
 xmlns:xlink="http://www.w3.org/1999/xlink"
 xmlns:xodm="http://www.corel.com/coreldraw/odm/2003">
 <defs>
  <style type="text/css">
   <![CDATA[
    .fil1 {fill:none}
    .fil0 {fill:black}
   ]]>
  </style>
 </defs>
 <g id="Layer_x0020_1">
  <metadata id="CorelCorpID_0Corel-Layer"/>
  <g id="_2565576933584">
   <path class="fil0" d="M778.76 1015.18c-3.22,-3.04 -17.65,-29.63 -18.99,-31.18 -4.06,-4.69 -14.11,-1.48 -20.56,-0.38 -7.01,1.2 -14.53,2.78 -21.46,3.62 1.36,-4.25 10.41,-23.13 12.91,-28.7 2.15,-4.78 11.49,-26.26 13.31,-28.91 1.33,1.25 3.48,5.57 4.5,7.46 1.46,2.72 3.16,5.43 4.93,7.66 13.42,16.89 36.21,18.36 54.48,9.41 -0.62,1.95 -2.58,5.53 -3.45,7.39l-25.67 53.63zm79.88 -61.02c13.07,5.3 26.26,8.74 40.65,1.89 17.8,-8.47 18.93,-21.23 23.27,-26.34 1.77,3.45 25.09,53.02 26.39,57.26 -7.35,-1.05 -14.77,-2.39 -22,-3.57 -7.64,-1.24 -15.79,-4.06 -20.05,1.34 -2.77,3.51 -13.78,24.41 -18.48,30.9l-29.78 -61.47zm-29.19 -311.71c21.24,-4.5 26.35,22.7 57.7,21.33 8.39,-0.37 21.22,-7.63 32.21,2.05 11.72,10.32 7.11,15.97 12.89,27.04 4.75,9.11 11,15.24 20.52,19.43 10.29,4.53 17.63,7.04 21.92,18 6.64,16.96 -8.52,28.82 2.47,50.58 3.94,7.79 22.04,22.08 8.48,41.91 -3.21,4.69 -6.52,6.45 -9.83,10.11 -6.69,7.4 -11.24,17.23 -11.64,28.28 -0.23,6.33 1.65,11.87 0.54,18.2 -1.02,5.85 -4.26,9.5 -7.57,12.46 -2.54,2.27 -8.7,6.62 -12.22,7.71 -5.85,1.82 -9.94,1.89 -15.5,4.52 -20.04,9.48 -21.35,25.04 -27.7,32.15 -5.58,6.26 -18.2,11.74 -30.03,7.76 -16.94,-5.69 -8.84,-5.9 -32.44,-6.81 -40.59,-1.56 -36.18,7.96 -51.91,8.06 -22.87,0.13 -25.74,-17.85 -32.83,-27.24 -17.13,-22.67 -37.67,-12.31 -49.11,-30.76 -6.39,-10.3 -1.21,-21.33 -4.17,-34.63 -3.13,-14.05 -7.69,-17.16 -15.31,-24.61 -6.58,-6.44 -12.93,-15.77 -7.5,-28.94 4.04,-9.8 10.69,-12.83 13.94,-25.99 4.62,-18.75 -2.55,-25.89 -2.25,-35.09 0.39,-12.03 8.43,-19.35 17.81,-22.38 30.29,-9.78 27.51,-34.22 35.02,-44.84 15.19,-21.5 33.97,2.52 62.26,-13.04 10,-5.5 11.19,-12.48 24.28,-15.25zm-96.87 275.78c-0.79,3.19 -5.17,11.4 -6.93,15.28 -2.29,5.04 -4.5,10.3 -6.85,15.47 -4.79,10.52 -9.28,20.86 -14.11,30.96 -1.57,3.3 -6.59,11.95 -6.91,15.37 -0.83,8.93 8.4,8.15 13.64,7.28 6.47,-1.07 34.71,-5.6 39.41,-5.68 1.71,4.59 6.67,11.93 9.22,16.47 3.22,5.72 6.18,10.58 9.44,16.22 2.42,4.18 6.75,14.56 14,8.56 3.17,-2.63 14.46,-28.79 17.06,-34.32 2.97,-6.34 5.5,-11.12 8.29,-17.33 5.24,-11.66 11.13,-23.94 16.88,-35.04l15.12 -0.09c2.46,6.16 12.64,25.85 16.72,34.63 2,4.31 23.5,49.91 25.79,51.83 7.61,6.4 11.76,-3.51 14.36,-8.11l14.2 -24.58c1.7,-2.93 2.89,-5.76 4.91,-8.27l38.7 5.84c7.2,1.13 14.25,0.6 13.83,-7.49 -0.08,-1.57 -33,-71.83 -35.37,-76.96 11.81,-4.44 13.81,-2 25.24,-8.98 7.28,-4.44 12.76,-9.28 16.86,-17.33 11.06,-21.72 -7.27,-31.64 14.96,-52.39 12.33,-11.5 19.48,-29.38 9.84,-49.93 -3.51,-7.48 -10.78,-13.57 -12.04,-22.18 -2.52,-17.23 13.54,-29.95 -6.5,-54.56 -12.59,-15.46 -31.83,-9.8 -37.97,-30.46 -3.72,-12.54 -2.64,-15.26 -10.54,-23.7 -20.88,-22.28 -39.53,-9.65 -51.83,-10.82 -12.96,-1.23 -15.85,-6.12 -22.46,-11.85 -5.64,-4.89 -15.41,-9.36 -25.43,-9.42 -11.95,-0.06 -19.27,2.72 -25.95,8.35 -7.13,6.02 -8.91,10.73 -21.6,12.59 -13.55,1.98 -32.97,-10.93 -53.3,10.62 -14.89,15.79 -5.67,32.88 -27.13,41.32 -8.41,3.3 -14.64,5.17 -21.37,12.85 -9.3,10.6 -13.39,24.57 -7.87,39.03 6.53,17.1 -5.98,29.66 -10.51,37.85 -9.91,17.91 -4.56,35.52 9.28,49.51 22.31,22.56 4.3,32.09 14.78,52.51 11.09,21.6 26.53,21.39 42.13,26.93z"/>
   <path class="fil0" d="M727.56 807.56c-2.98,-32.49 11.3,-62.64 26.38,-79.02 18.66,-20.26 40.21,-32.46 70.35,-35.8 32.33,-3.58 62.69,11.05 79.19,26.02 44.43,40.34 49.16,104.08 10.02,149.33 -13.66,15.79 -39.97,33.44 -70.3,35.8 -62.89,4.91 -110.59,-41.07 -115.64,-96.34zm97.72 -129.58c-32.53,2.83 -61.02,16.74 -81.08,39.7 -17.88,20.46 -34.23,49.58 -31.54,89.28 3.35,49.26 36.78,87.71 77.44,103.89 61.76,24.58 132.02,-7.85 156.28,-69.17 19.46,-49.2 2.84,-101.16 -32.39,-132.89 -19.25,-17.33 -51.26,-34.09 -88.72,-30.83z"/>
   <path class="fil0" d="M834.68 848.07c-19.13,-0.03 -33.23,-8.75 -42.05,-21.86 -1.7,-2.54 -3.12,-5.57 -4.69,-7.85 -3.97,-5.78 -14.31,-2.61 -13.67,5.09 0.6,7.22 14.81,21.96 21.8,27.27 21.33,16.21 52.06,16.18 74.65,0.3 5,-3.51 8.84,-7.26 12.61,-11.9 2.05,-2.52 9.19,-12.13 9.48,-15.66 0.63,-7.71 -9.6,-11.06 -13.69,-5.11 -1.54,2.24 -2.62,4.78 -4.44,7.53 -7.72,11.67 -22.55,22.22 -39.99,22.2z"/>
   <path class="fil0" d="M868.44 758.35c-18.33,4.28 -11.04,28.67 4.78,25.57 17.24,-3.38 11.46,-29.37 -4.78,-25.57z"/>
   <path class="fil0" d="M794.28 758.39c-18.75,4.53 -10.65,28.62 4.82,25.56 6.48,-1.28 11.8,-7.35 10.34,-15.63 -1.06,-5.97 -7.57,-11.76 -15.17,-9.93z"/>
  </g>
  <rect class="fil1" x="625" y="625" width="416.67" height="416.67"/>
 </g>
</svg>
