<?xml version="1.0" encoding="UTF-8"?>
<!DOCTYPE svg PUBLIC "-//W3C//DTD SVG 1.1//EN" "http://www.w3.org/Graphics/SVG/1.1/DTD/svg11.dtd">
<!-- Creator: CorelDRAW -->
<svg xmlns="http://www.w3.org/2000/svg" xml:space="preserve" width="1.66666in" height="1.66666in" version="1.1" style="shape-rendering:geometricPrecision; text-rendering:geometricPrecision; image-rendering:optimizeQuality; fill-rule:evenodd; clip-rule:evenodd"
viewBox="0 0 1666.66 1666.66"
 xmlns:xlink="http://www.w3.org/1999/xlink"
 xmlns:xodm="http://www.corel.com/coreldraw/odm/2003">
 <defs>
  <style type="text/css">
   <![CDATA[
    .fil1 {fill:none}
    .fil0 {fill:black}
   ]]>
  </style>
 </defs>
 <g id="Layer_x0020_1">
  <metadata id="CorelCorpID_0Corel-Layer"/>
  <g id="_2565526333360">
   <path class="fil0" d="M809.2 778.96c22.72,-4.13 40.37,12.93 43.48,31.05 3.89,22.7 -12.51,40.22 -30.83,43.33 -23.33,3.97 -41.23,-12.8 -43.87,-31.31 -3.03,-21.32 10.29,-39.26 31.22,-43.07zm-93.93 106.49c-3.91,-3.54 -10.31,-17.19 -12.88,-23.25 -3.52,-8.31 -6.24,-17.75 -7.73,-27.69 -1.56,-10.44 -1.84,-22.89 -0.46,-33.49 0.87,-6.67 4.13,-24.16 7.14,-28 9.11,4.93 18.48,10.72 28.57,15.43 4.19,1.96 26.75,13.38 28.66,15.67 0.58,1.8 -0.44,12.44 -0.28,16.1 0.79,18.44 9.17,16.93 -0.06,24.56 -6.5,5.39 -19.1,18.02 -25.72,24.31l-8.65 8.41c-2.81,2.5 -5.88,5.92 -8.59,7.93zm144.7 -105.11c-0.88,-1.31 -6.21,-6.5 -7.08,-7.22 -19.56,-16.14 -25.41,-6.65 -25.42,-18.07 -0.02,-18.74 0.65,-39.86 -0.43,-58.35 20,0.79 41.46,10.6 54.38,18.76 15.24,9.63 26.82,21.41 36.31,36.39 -2.24,2.86 -24.9,13.27 -28.04,14.89 -5.3,2.74 -25.12,13.58 -29.72,13.6zm-147.86 -27.85c2.24,-5.28 12.5,-17.19 16.06,-20.66 17.61,-17.17 47.54,-34.32 74.37,-35.05l0.01 63.22c-2.49,1.89 -8.79,3.42 -12.45,5.24 -24.48,12.17 -11.63,20.63 -31.89,10.13l-46.09 -22.88zm131.89 180.3c-5.36,0.63 -10.36,2 -16.07,2.6 -35.01,3.69 -65.66,-6.2 -92.42,-27.86 -2.26,-1.82 -3.06,-2.94 -5.04,-4.26l40.93 -37.07c9.22,-7.88 6.85,-6.27 14.04,-1.64 17.74,11.41 45.41,11.07 61.11,-1.06 6.99,-5.41 5.41,-2.85 17.77,7.62l21.41 18.7c-0.68,-7.63 0.07,-16.53 1.26,-23.87 1.5,-9.24 1.3,-5.13 -8.49,-14.69 -2.58,-2.51 -4.06,-3.94 -6.48,-6.16 -10.12,-9.24 0.33,-5.54 0.23,-28.71 -0.07,-17.27 -8.74,-8.15 22.78,-25.31 5.21,-2.84 11,-6.05 16.57,-8.74 3.89,-1.88 14.11,-8.24 16.98,-8.92 2.89,4.74 6.83,23.29 7.61,30.39 1.25,-0.24 15.99,-4.34 16.19,-4.49 -1.56,-6.24 -2.05,-12.05 -4.62,-21.7 -8.77,-32.89 -30.19,-58.33 -57.5,-76.7 -37.44,-25.19 -88.11,-27.37 -128.43,-11.41 -82.61,32.7 -112.33,137.71 -57.61,209.48 14.07,18.45 34.78,36.12 61.83,45.76 13.62,4.85 28.13,8.03 44.85,8.8 15.01,0.7 12.31,0.14 19.43,-6.92 4.68,-4.64 9.73,-8.75 13.7,-13.83z"/>
   <path class="fil0" d="M800.72 1003.01c0.01,-6.31 -0.08,-11.37 1.74,-16.82 -37.74,-3.48 -67.39,-15.8 -90.54,-33.52 -23.09,-17.66 -41.41,-38.06 -54.76,-69.28 -43.13,-100.88 20.09,-208.97 113.85,-231.52 102.15,-24.57 203.86,40.67 214.73,147.25 1.53,0.59 16.24,4.46 17.3,4.54 -4.11,-24.38 -2.61,-29.84 -12.5,-55.57 -33.17,-86.33 -126.04,-134.51 -219.67,-113.43 -28.3,6.37 -58.44,21.18 -79.64,39.96 -6.7,5.93 -11.46,10.51 -17.51,17.35 -19.69,22.28 -33.8,48.73 -41.39,78.84 -16.53,65.54 4.06,133.46 49.84,178.7 30.11,29.76 69.08,48.58 118.56,53.5z"/>
   <path class="fil0" d="M1021.02 885.28c-0.73,24.97 -26.38,47.77 -53.13,46.02 -21.3,-1.4 -11.9,-7.26 -38.21,19.14l-59.69 59.93c-23.91,23.37 -45.31,-9.4 -31.71,-24.72l80.02 -80.13c4.72,-4.88 2.94,-8.53 1.86,-15.59 -0.92,-6.04 -0.68,-12.8 0.43,-18.83 2.05,-11.15 7.88,-20.28 14.02,-25.84 5.03,-4.56 17.92,-12.68 27.97,-12.24 -20.35,22.48 -19.44,9.36 -12.18,46.37 1.31,6.69 1.7,13.25 6.36,16.43 3.36,2.29 30.87,7.46 37.1,8.5 8.54,1.44 11.57,-3.88 15.14,-7.48 2.9,-2.93 8.93,-9.9 12.02,-11.56zm-61.18 -71.52c-36,5.29 -59.72,31.35 -59.39,68.47 0.18,19.4 7.15,7.9 -23.3,38.46 -10.78,10.81 -21.12,21.2 -31.97,31.96 -10.54,10.46 -24.35,21.76 -27.94,35.34 -10.27,38.89 35.61,65.79 64.5,36.66 10.76,-10.84 21.05,-21.28 31.78,-32.15 10.62,-10.76 20.95,-20.95 31.63,-31.67 14.24,-14.28 9.34,-11.63 19.48,-10.76 43.52,3.75 81.91,-33.04 74.42,-82.19 -0.76,-4.98 -1.17,-8.77 -4.54,-11.24 -9.02,-6.61 -17.72,6.73 -27.61,16.56 -15.65,15.56 -8.06,13.46 -30.8,8.95 -9.66,-1.91 -6.17,1.56 -11.04,-21.31 -1.19,-5.57 2.06,-6.77 5.08,-9.84 4.17,-4.23 21.57,-21.04 22.96,-25.16 5.31,-15.72 -25.37,-13.27 -33.27,-12.11z"/>
  </g>
  <rect class="fil1" x="625" y="625" width="416.67" height="416.67"/>
 </g>
</svg>
