<?xml version="1.0" encoding="UTF-8"?>
<!DOCTYPE svg PUBLIC "-//W3C//DTD SVG 1.1//EN" "http://www.w3.org/Graphics/SVG/1.1/DTD/svg11.dtd">
<!-- Creator: CorelDRAW -->
<svg xmlns="http://www.w3.org/2000/svg" xml:space="preserve" width="1.66666in" height="1.66666in" version="1.1" style="shape-rendering:geometricPrecision; text-rendering:geometricPrecision; image-rendering:optimizeQuality; fill-rule:evenodd; clip-rule:evenodd"
viewBox="0 0 1666.66 1666.66"
 xmlns:xlink="http://www.w3.org/1999/xlink"
 xmlns:xodm="http://www.corel.com/coreldraw/odm/2003">
 <defs>
  <style type="text/css">
   <![CDATA[
    .fil1 {fill:none}
    .fil0 {fill:black}
   ]]>
  </style>
 </defs>
 <g id="Layer_x0020_1">
  <metadata id="CorelCorpID_0Corel-Layer"/>
  <g id="_2565190269184">
   <path class="fil0" d="M834.06 1018.32l-17.57 -22.66c-31.33,-41.43 -99.18,-131.27 -112.38,-171.41 -30.97,-94.11 40.19,-180.86 128.11,-180.78 49.96,0.04 89.17,26.06 109.19,52.55 23.67,31.34 38.48,78.28 21.61,127.19 -9.25,26.83 -27.74,54.49 -43.52,77.33 -5.71,8.26 -10.95,16.13 -16.84,24.06 -19.83,26.68 -39.85,55.61 -59.96,81.93 -2.21,2.89 -7.55,9.13 -8.63,11.81zm-5.91 -391.33c-17.02,2.41 -18.2,0.27 -38.57,6.07 -11.5,3.28 -22.72,8.31 -31.82,13.42 -28.92,16.22 -50.54,41.11 -64.02,70.45 -15.86,34.52 -18.48,78.09 -5.19,112.96 13.96,36.63 36.52,67.59 58.31,99.06 23.24,33.55 51.98,70.88 76.56,103.75 13.37,17.88 20.98,-0.52 34.24,-18.66l38.24 -51.58c18.39,-25.53 38.8,-52.76 55.47,-79.64 29.67,-47.86 42.87,-81.33 30.8,-139.62 -8.76,-42.28 -41.86,-81.87 -80.23,-100.08 -10.46,-4.96 -20.66,-9.04 -33.17,-12.05 -9.16,-2.21 -30.93,-5.45 -40.63,-4.08z"/>
   <path class="fil0" d="M752.55 782.89c-0.02,-76.62 88.47,-107.69 137.47,-59.04 23.21,23.05 30.99,59.94 17.48,89.71 -11.13,24.52 -36.68,48.3 -72.8,48.3 -45.09,0.01 -82.13,-34.75 -82.15,-78.98zm73.16 -98.59c-31.03,3.37 -51.12,15.57 -65.47,32.21 -13.94,16.17 -27.43,41.67 -24.37,72.17 2.82,28.15 12.98,47.14 32.23,65.15 15.09,14.12 43.34,26.87 73.2,24.29 86.61,-7.5 119.93,-113.15 56.69,-169.7 -15.55,-13.91 -42.56,-27.35 -72.29,-24.12z"/>
   <path class="fil0" d="M824.74 730.22l0.01 50.81c-0,7.91 1.83,11.75 9.96,11.76l40.89 0c10.81,-0.01 12.16,-16.14 0.02,-16.72 -10.85,-0.52 -23.17,0.02 -34.19,0.01l0.02 -42.77c0,-6.82 -0.52,-12.39 -6.87,-13.56 -7.24,-1.34 -9.86,3.85 -9.84,10.46z"/>
  </g>
  <rect class="fil1" x="625" y="625" width="416.67" height="416.67"/>
 </g>
</svg>
